<svg id="Layer_1" data-name="Layer 1" xmlns="http://www.w3.org/2000/svg" viewBox="0 0 1080 1080"><defs><style>.cls-1{font-size:32.45px;font-family:Rambla-Bold, Rambla;font-weight:700;letter-spacing:0.02em;}.cls-1,.cls-9{fill:#ee1c25;}.cls-2{letter-spacing:0.01em;}.cls-3{letter-spacing:0.01em;}.cls-4{letter-spacing:0.01em;}.cls-5{letter-spacing:0em;}.cls-6{letter-spacing:0em;}.cls-7{letter-spacing:0em;}.cls-8{fill:#131635;}</style></defs><text class="cls-1" transform="translate(88.33 612.83)">Get it - <tspan class="cls-2" x="108.98" y="0">N</tspan><tspan class="cls-3" x="131.53" y="0">e</tspan><tspan class="cls-4" x="147.56" y="0">v</tspan><tspan x="164.4" y="0">e</tspan><tspan class="cls-5" x="180.62" y="0">r</tspan><tspan x="192.88" y="0"> </tspan><tspan class="cls-6" x="199.57" y="0">C</tspan><tspan x="216.47" y="0">omp</tspan><tspan class="cls-7" x="279.58" y="0">r</tspan><tspan x="291.97" y="0">omise!</tspan></text><path class="cls-8" d="M175.35,481.67a35.75,35.75,0,0,0-7.44-11.87,34.34,34.34,0,0,0-11.6-8A38.93,38.93,0,0,0,141.06,459H101A10.71,10.71,0,0,0,90.31,469.7V574h24.07V532.25h26.68a40.83,40.83,0,0,0,15.25-2.69,34.4,34.4,0,0,0,11.6-7.44,32,32,0,0,0,7.44-11.43,39.58,39.58,0,0,0,2.6-14.47A40.28,40.28,0,0,0,175.35,481.67Zm-23.11,26.25q-4.61,4.77-15,4.76H114.38V478.9h22.87q10.38,0,15,4.68a16.45,16.45,0,0,1,4.59,11.95A17.21,17.21,0,0,1,152.24,507.92Z"/><path class="cls-8" d="M275,512.85a38.06,38.06,0,0,0-22.26-23.12,48.05,48.05,0,0,0-18-3.2,49.23,49.23,0,0,0-18.27,3.2,39.17,39.17,0,0,0-13.78,9.09A39.63,39.63,0,0,0,194,513a53.1,53.1,0,0,0-3,18.36,54.47,54.47,0,0,0,2.94,18.19,39.41,39.41,0,0,0,8.58,14.21A39,39,0,0,0,216.22,573a49.27,49.27,0,0,0,18.54,3.29A48.06,48.06,0,0,0,252.69,573,38.17,38.17,0,0,0,266.37,564,40.53,40.53,0,0,0,275,549.83a53.09,53.09,0,0,0,3-18.45A53.87,53.87,0,0,0,275,512.85Zm-40.27,44.51q-20.62,0-20.61-26,0-25.78,20.61-25.8t20.61,25.8Q255.37,557.38,234.76,557.36Z"/><path class="cls-8" d="M461.62,457.6a10.77,10.77,0,0,0-10.72,10.71v31.55q-9.51-13.32-25.26-13.34a32.79,32.79,0,0,0-14.82,3.21,30.88,30.88,0,0,0-11,9.09A42,42,0,0,0,393,512.75a63.67,63.67,0,0,0-2.33,17.76,61.42,61.42,0,0,0,2.77,19.22,43.92,43.92,0,0,0,7.6,14.39,32.65,32.65,0,0,0,11.62,9,22.27,22.27,0,0,0,2.06.86,35.77,35.77,0,0,0,12.85,2.26A30.1,30.1,0,0,0,439.48,574a25,25,0,0,0,11.79-10.37l.17,10.37h10.94a10.71,10.71,0,0,0,10.71-10.72V457.6Zm-10.18,81a24.87,24.87,0,0,1-5.12,12.47,16.77,16.77,0,0,1-13.59,6.76q-8.49,0-13.85-7.18c-3.58-4.8-5.38-11-5.38-18.62q0-26.34,19.4-26.34,16.37,0,18.54,20.86a61.6,61.6,0,0,1,.35,6.87A35.64,35.64,0,0,1,451.44,538.65Z"/><path class="cls-8" d="M783.56,512.85a38,38,0,0,0-22.25-23.12,48.11,48.11,0,0,0-18-3.2,49.23,49.23,0,0,0-18.27,3.2,39.09,39.09,0,0,0-13.76,9.09,39.67,39.67,0,0,0-8.75,14.2,53.1,53.1,0,0,0-3,18.36,54.22,54.22,0,0,0,2.95,18.19A39.39,39.39,0,0,0,711,563.78,38.86,38.86,0,0,0,724.77,573a49.13,49.13,0,0,0,18.52,3.29A48.11,48.11,0,0,0,761.23,573,38.25,38.25,0,0,0,774.91,564a40.51,40.51,0,0,0,8.65-14.12,53.09,53.09,0,0,0,3-18.45A53.87,53.87,0,0,0,783.56,512.85Zm-40.27,44.51q-20.6,0-20.6-26,0-25.78,20.6-25.8t20.62,25.8Q763.91,557.38,743.29,557.36Z"/><path class="cls-8" d="M843.93,486.87a23.72,23.72,0,0,0-6.5,1.65,24.69,24.69,0,0,0-6.23,3.72,27.63,27.63,0,0,0-5.81,6.75V488.78H815a10.72,10.72,0,0,0-10.72,10.71V574h22.52V529.65a20.48,20.48,0,0,1,19.74-20.6,37.82,37.82,0,0,1,7.11.51v-23h-3A64.59,64.59,0,0,0,843.93,486.87Z"/><path class="cls-8" d="M869.21,468.32V574h22.52V457.6h-11.8A10.72,10.72,0,0,0,869.21,468.32Z"/><path class="cls-8" d="M980.22,457.6a10.72,10.72,0,0,0-10.73,10.71v31.55q-9.53-13.33-25.28-13.33a33.1,33.1,0,0,0-14.81,3.2,31.12,31.12,0,0,0-11,9.09,42.27,42.27,0,0,0-6.84,13.95,63.4,63.4,0,0,0-2.33,17.75A62.07,62.07,0,0,0,912,549.75a43.88,43.88,0,0,0,7.63,14.37,32.44,32.44,0,0,0,11.6,9,35.24,35.24,0,0,0,14.9,3.11q15.93,0,23.72-12.64L970,574h21.66V457.6Zm-15.31,93.52a16.8,16.8,0,0,1-13.59,6.76q-8.49,0-13.87-7.19t-5.36-18.61q0-26.34,19.39-26.34,18.88,0,18.88,27.72C970.36,540.73,968.55,546.63,964.91,551.12Z"/><path class="cls-8" d="M364.92,493.81c-11.57-11.27-35.53-10.67-49.34-5-16.21,6.62-19.86,16.8-19.86,39.07V574h22.53V525.15c0-13.06,5.81-19.57,17.5-19.57,6.43,0,12.25,1.84,13.65,8.75.8,4,1.2,59.65.88,59.65H373V514.92a32.15,32.15,0,0,0-2.16-12.19A26.07,26.07,0,0,0,364.92,493.81Z"/><path class="cls-8" d="M535.06,548.54,515,488.22H487.08l35.82,88.2q-4.06,12.15-14.47,12.16h-.07a7.62,7.62,0,0,0-7.55,5.92l-3.14,14.38a67.39,67.39,0,0,0,14.64,2.1,27.79,27.79,0,0,0,19.31-7.23q8-7.23,14.57-24.16l16.27-42.38-11.84-35.37Z"/><path class="cls-9" d="M665.47,488.22l-16.92,60.32-16.24-60.32H614L598.1,547.3l-16.82-59.08H564.84a6.91,6.91,0,0,0-6.56,9.11l9.09,27.14L585,577.29h22.41L623,524.2l16.22,53.09h22.4l29.64-89.07Z"/></svg>